<svg xmlns="http://www.w3.org/2000/svg" width="375" viewBox="0 0 375 375" height="375" version="1.0"><defs><clipPath id="a"><path d="M 112.5 112.5 L 262.5 112.5 L 262.5 262.5 L 112.5 262.5 Z M 112.5 112.5"/></clipPath><clipPath id="b"><path d="M 146.25 146.25 L 228.75 146.25 L 228.75 178.875 L 146.25 178.875 Z M 146.25 178.875 L 206.25 178.875 L 206.25 196.125 L 146.25 196.125 Z M 146.25 196.125 L 228.75 196.125 L 228.75 228.75 L 146.25 228.75 Z M 146.25 196.125"/></clipPath></defs><g clip-path="url(#a)"><path transform="matrix(.75 0 0 .75 112.5 112.5)" fill="none" d="M 188.500016 100.000016 C 188.500016 101.447933 188.463558 102.89585 188.39585 104.343767 C 188.322933 105.791683 188.213558 107.234392 188.072933 108.6771 C 187.932308 110.1146 187.755225 111.552101 187.541683 112.984392 C 187.328141 114.416684 187.083349 115.843767 186.796891 117.265643 C 186.515641 118.687518 186.197933 120.098976 185.848974 121.505226 C 185.494808 122.906268 185.109391 124.302101 184.687516 125.692726 C 184.270849 127.078143 183.812516 128.453143 183.328141 129.812518 C 182.838558 131.177102 182.317724 132.531269 181.765641 133.86981 C 181.208349 135.203144 180.619807 136.531269 180.005224 137.838561 C 179.385432 139.145852 178.734391 140.442727 178.052099 141.718769 C 177.369807 142.994811 176.651057 144.255228 175.911474 145.500019 C 175.166682 146.739603 174.39064 147.963561 173.583349 149.166686 C 172.781265 150.369811 171.947932 151.557311 171.083348 152.71877 C 170.218765 153.880228 169.32814 155.026062 168.411473 156.145853 C 167.494807 157.265645 166.54689 158.359395 165.572931 159.432312 C 164.598973 160.505229 163.604181 161.557312 162.57814 162.578146 C 161.557306 163.604187 160.505223 164.598979 159.432306 165.572937 C 158.359389 166.546896 157.265639 167.494813 156.145847 168.411479 C 155.026056 169.328146 153.880222 170.218771 152.718764 171.083354 C 151.557305 171.947938 150.369805 172.781271 149.16668 173.583355 C 147.963555 174.390646 146.739597 175.166688 145.500013 175.91148 C 144.255222 176.651063 142.994805 177.369813 141.718763 178.052105 C 140.442721 178.734397 139.145846 179.385438 137.838555 180.00523 C 136.531263 180.619813 135.203138 181.208355 133.869804 181.765647 C 132.531263 182.31773 131.177096 182.838564 129.812512 183.328147 C 128.453137 183.812522 127.078137 184.270855 125.69272 184.687522 C 124.302095 185.109397 122.906262 185.494814 121.50522 185.84898 C 120.09897 186.197939 118.687512 186.515647 117.265637 186.796897 C 115.843761 187.083355 114.416678 187.328147 112.984386 187.541689 C 111.552095 187.755231 110.114594 187.932314 108.677094 188.072939 C 107.234386 188.213564 105.791677 188.322939 104.343761 188.395856 C 102.895844 188.463564 101.447927 188.500022 100.00001 188.500022 C 98.552094 188.500022 97.104177 188.463564 95.65626 188.395856 C 94.208343 188.322939 92.765635 188.213564 91.322927 188.072939 C 89.885426 187.932314 88.447926 187.755231 87.015635 187.541689 C 85.583343 187.328147 84.156259 187.083355 82.734384 186.796897 C 81.312509 186.515647 79.901051 186.197939 78.494801 185.84898 C 77.093759 185.494814 75.697925 185.109397 74.3073 184.687522 C 72.921884 184.270855 71.546884 183.812522 70.187508 183.328147 C 68.822925 182.838564 67.468758 182.31773 66.130217 181.765647 C 64.796883 181.208355 63.468758 180.619813 62.161466 180.00523 C 60.854175 179.385438 59.557299 178.734397 58.281258 178.052105 C 57.005216 177.369813 55.744799 176.651063 54.500007 175.91148 C 53.260424 175.166688 52.036466 174.390646 50.833341 173.583355 C 49.630215 172.781271 48.442715 171.947938 47.281257 171.083354 C 46.119799 170.218771 44.973965 169.328146 43.854173 168.411479 C 42.734382 167.494813 41.640632 166.546896 40.567715 165.572937 C 39.494798 164.598979 38.442715 163.604187 37.421881 162.578146 C 36.39584 161.557312 35.401048 160.505229 34.427089 159.432312 C 33.453131 158.359395 32.505214 157.265645 31.588548 156.145853 C 30.671881 155.026062 29.781256 153.880228 28.916672 152.71877 C 28.052089 151.557311 27.218756 150.369811 26.416672 149.166686 C 25.609381 147.963561 24.833339 146.739603 24.088547 145.500019 C 23.348964 144.255228 22.630214 142.994811 21.947922 141.718769 C 21.26563 140.442727 20.614589 139.145852 19.994797 137.838561 C 19.380213 136.531269 18.791672 135.203144 18.23438 133.86981 C 17.682297 132.531269 17.161463 131.177102 16.67188 129.812518 C 16.187505 128.453143 15.729172 127.078143 15.312505 125.692726 C 14.89063 124.302101 14.505213 122.906268 14.151046 121.505226 C 13.802088 120.098976 13.48438 118.687518 13.197921 117.265643 C 12.916671 115.843767 12.67188 114.416684 12.458338 112.984392 C 12.244796 111.552101 12.067713 110.1146 11.927088 108.6771 C 11.786463 107.234392 11.677088 105.791683 11.604171 104.343767 C 11.536463 102.89585 11.500005 101.447933 11.500005 100.000016 C 11.500005 98.5521 11.536463 97.104183 11.604171 95.656266 C 11.677088 94.208349 11.786463 92.765641 11.927088 91.322933 C 12.067713 89.885432 12.244796 88.447932 12.458338 87.015641 C 12.67188 85.583349 12.916671 84.156265 13.197921 82.73439 C 13.48438 81.312515 13.802088 79.901057 14.151046 78.494807 C 14.505213 77.093765 14.89063 75.697931 15.312505 74.307306 C 15.729172 72.92189 16.187505 71.54689 16.67188 70.187514 C 17.161463 68.822931 17.682297 67.468764 18.23438 66.130223 C 18.791672 64.796889 19.380213 63.468764 19.994797 62.161472 C 20.614589 60.854181 21.26563 59.557305 21.947922 58.281264 C 22.630214 57.005222 23.348964 55.744805 24.088547 54.500013 C 24.833339 53.26043 25.609381 52.036472 26.416672 50.833347 C 27.218756 49.630221 28.052089 48.442721 28.916672 47.281263 C 29.781256 46.119805 30.671881 44.973971 31.588548 43.854179 C 32.505214 42.734388 33.453131 41.640638 34.427089 40.567721 C 35.401048 39.494804 36.39584 38.442721 37.421881 37.421887 C 38.442715 36.395846 39.494798 35.401054 40.567715 34.427095 C 41.640632 33.453137 42.734382 32.50522 43.854173 31.588554 C 44.973965 30.671887 46.119799 29.781262 47.281257 28.916678 C 48.442715 28.052095 49.630215 27.218762 50.833341 26.416678 C 52.036466 25.609387 53.260424 24.833345 54.500007 24.088553 C 55.744799 23.34897 57.005216 22.63022 58.281258 21.947928 C 59.557299 21.265636 60.854175 20.614595 62.161466 19.994803 C 63.468758 19.380219 64.796883 18.791678 66.130217 18.234386 C 67.468758 17.682303 68.822925 17.161469 70.187508 16.671886 C 71.546884 16.187511 72.921884 15.729178 74.3073 15.312511 C 75.697925 14.890636 77.093759 14.505219 78.494801 14.151052 C 79.901051 13.802094 81.312509 13.484386 82.734384 13.197927 C 84.156259 12.916677 85.583343 12.671886 87.015635 12.458344 C 88.447926 12.244802 89.885426 12.067719 91.322927 11.927094 C 92.765635 11.786469 94.208343 11.677094 95.65626 11.604177 C 97.104177 11.536469 98.552094 11.500011 100.00001 11.500011 C 101.447927 11.500011 102.895844 11.536469 104.343761 11.604177 C 105.791677 11.677094 107.234386 11.786469 108.677094 11.927094 C 110.114594 12.067719 111.552095 12.244802 112.984386 12.458344 C 114.416678 12.671886 115.843761 12.916677 117.265637 13.197927 C 118.687512 13.484386 120.09897 13.802094 121.50522 14.151052 C 122.906262 14.505219 124.302095 14.890636 125.69272 15.312511 C 127.078137 15.729178 128.453137 16.187511 129.812512 16.671886 C 131.177096 17.161469 132.531263 17.682303 133.869804 18.234386 C 135.203138 18.791678 136.531263 19.380219 137.838555 19.994803 C 139.145846 20.614595 140.442721 21.265636 141.718763 21.947928 C 142.994805 22.63022 144.255222 23.34897 145.500013 24.088553 C 146.739597 24.833345 147.963555 25.609387 149.16668 26.416678 C 150.369805 27.218762 151.557305 28.052095 152.718764 28.916678 C 153.880222 29.781262 155.026056 30.671887 156.145847 31.588554 C 157.265639 32.50522 158.359389 33.453137 159.432306 34.427095 C 160.505223 35.401054 161.557306 36.395846 162.57814 37.421887 C 163.604181 38.442721 164.598973 39.494804 165.572931 40.567721 C 166.54689 41.640638 167.494807 42.734388 168.411473 43.854179 C 169.32814 44.973971 170.218765 46.119805 171.083348 47.281263 C 171.947932 48.442721 172.781265 49.630221 173.583349 50.833347 C 174.39064 52.036472 175.166682 53.26043 175.911474 54.500013 C 176.651057 55.744805 177.369807 57.005222 178.052099 58.281264 C 178.734391 59.557305 179.385432 60.854181 180.005224 62.161472 C 180.619807 63.468764 181.208349 64.796889 181.765641 66.130223 C 182.317724 67.468764 182.838558 68.822931 183.328141 70.187514 C 183.812516 71.54689 184.270849 72.92189 184.687516 74.307306 C 185.109391 75.697931 185.494808 77.093765 185.848974 78.494807 C 186.197933 79.901057 186.515641 81.312515 186.796891 82.73439 C 187.083349 84.156265 187.328141 85.583349 187.541683 87.015641 C 187.755225 88.447932 187.932308 89.885432 188.072933 91.322933 C 188.213558 92.765641 188.322933 94.208349 188.39585 95.656266 C 188.463558 97.104183 188.500016 98.5521 188.500016 100.000016 Z M 188.500016 100.000016" stroke="#000" stroke-width="23"/></g><g clip-path="url(#b)"><path transform="matrix(.75 0 0 .75 112.5 112.5)" fill="none" d="M 142.500013 100.000016 C 142.500013 101.390642 142.432305 102.781267 142.296888 104.166683 C 142.161472 105.5521 141.953138 106.9271 141.682305 108.291684 C 141.411471 109.656267 141.07293 111.005225 140.671888 112.338559 C 140.265638 113.666684 139.796888 114.979184 139.265638 116.265642 C 138.734388 117.552101 138.13543 118.807309 137.47918 120.036476 C 136.82293 121.260434 136.109388 122.453143 135.338554 123.609393 C 134.562513 124.770851 133.734388 125.885435 132.854179 126.96356 C 131.968763 128.036477 131.036471 129.067727 130.052096 130.052102 C 129.067721 131.036477 128.036471 131.968769 126.963554 132.854185 C 125.885429 133.734394 124.770845 134.562519 123.609387 135.33856 C 122.453137 136.109394 121.260428 136.822936 120.03647 137.479186 C 118.807303 138.135436 117.552095 138.734394 116.265636 139.265644 C 114.979178 139.796894 113.666678 140.265644 112.338553 140.671894 C 111.005219 141.072936 109.656261 141.411477 108.291678 141.682311 C 106.927094 141.953144 105.552094 142.161478 104.166677 142.296894 C 102.781261 142.432311 101.390636 142.500019 100.00001 142.500019 C 98.609385 142.500019 97.21876 142.432311 95.833343 142.296894 C 94.447927 142.161478 93.072927 141.953144 91.708343 141.682311 C 90.34376 141.411477 88.994801 141.072936 87.661468 140.671894 C 86.333343 140.265644 85.020843 139.796894 83.734384 139.265644 C 82.447926 138.734394 81.192718 138.135436 79.963551 137.479186 C 78.739592 136.822936 77.546884 136.109394 76.390634 135.33856 C 75.229175 134.562519 74.114592 133.734394 73.036467 132.854185 C 71.96355 131.968769 70.9323 131.036477 69.947925 130.052102 C 68.96355 129.067727 68.031258 128.036477 67.145842 126.96356 C 66.265633 125.885435 65.437508 124.770851 64.661466 123.609393 C 63.890633 122.453143 63.177091 121.260434 62.520841 120.036476 C 61.864591 118.807309 61.265633 117.552101 60.734383 116.265642 C 60.203133 114.979184 59.734383 113.666684 59.328133 112.338559 C 58.927091 111.005225 58.588549 109.656267 58.317716 108.291684 C 58.046883 106.9271 57.838549 105.5521 57.703133 104.166683 C 57.567716 102.781267 57.500008 101.390642 57.500008 100.000016 C 57.500008 98.609391 57.567716 97.218766 57.703133 95.833349 C 57.838549 94.447933 58.046883 93.072933 58.317716 91.708349 C 58.588549 90.343766 58.927091 88.994807 59.328133 87.661474 C 59.734383 86.333349 60.203133 85.020849 60.734383 83.73439 C 61.265633 82.447932 61.864591 81.192724 62.520841 79.963557 C 63.177091 78.739598 63.890633 77.54689 64.661466 76.39064 C 65.437508 75.229181 66.265633 74.114598 67.145842 73.036473 C 68.031258 71.963556 68.96355 70.932306 69.947925 69.947931 C 70.9323 68.963556 71.96355 68.031264 73.036467 67.145848 C 74.114592 66.265639 75.229175 65.437514 76.390634 64.661472 C 77.546884 63.890639 78.739592 63.177097 79.963551 62.520847 C 81.192718 61.864597 82.447926 61.265639 83.734384 60.734389 C 85.020843 60.203139 86.333343 59.734389 87.661468 59.328139 C 88.994801 58.927097 90.34376 58.588555 91.708343 58.317722 C 93.072927 58.046889 94.447927 57.838555 95.833343 57.703139 C 97.21876 57.567722 98.609385 57.500014 100.00001 57.500014 C 101.390636 57.500014 102.781261 57.567722 104.166677 57.703139 C 105.552094 57.838555 106.927094 58.046889 108.291678 58.317722 C 109.656261 58.588555 111.005219 58.927097 112.338553 59.328139 C 113.666678 59.734389 114.979178 60.203139 116.265636 60.734389 C 117.552095 61.265639 118.807303 61.864597 120.03647 62.520847 C 121.260428 63.177097 122.453137 63.890639 123.609387 64.661472 C 124.770845 65.437514 125.885429 66.265639 126.963554 67.145848 C 128.036471 68.031264 129.067721 68.963556 130.052096 69.947931 C 131.036471 70.932306 131.968763 71.963556 132.854179 73.036473 C 133.734388 74.114598 134.562513 75.229181 135.338554 76.39064 C 136.109388 77.54689 136.82293 78.739598 137.47918 79.963557 C 138.13543 81.192724 138.734388 82.447932 139.265638 83.73439 C 139.796888 85.020849 140.265638 86.333349 140.671888 87.661474 C 141.07293 88.994807 141.411471 90.343766 141.682305 91.708349 C 141.953138 93.072933 142.161472 94.447933 142.296888 95.833349 C 142.432305 97.218766 142.500013 98.609391 142.500013 100.000016 Z M 142.500013 100.000016" stroke="#000" stroke-width="23"/></g></svg>